<svg width="1600" height="1000" viewBox="0 0 1600 1000" xmlns="http://www.w3.org/2000/svg" role="img" aria-label="Project Code Red community collage placeholder">
  <defs>
    <linearGradient id="grad" x1="0%" y1="0%" x2="100%" y2="100%">
      <stop offset="0%" stop-color="#7C3AED" stop-opacity="0.95"/>
      <stop offset="50%" stop-color="#EC4899" stop-opacity="0.9"/>
      <stop offset="100%" stop-color="#F59E0B" stop-opacity="0.85"/>
    </linearGradient>
    <linearGradient id="shine" x1="0%" y1="0%" x2="100%" y2="0%">
      <stop offset="0%" stop-color="#ffffff" stop-opacity="0.06"/>
      <stop offset="60%" stop-color="#ffffff" stop-opacity="0"/>
    </linearGradient>
  </defs>
  <rect width="1600" height="1000" rx="48" fill="url(#grad)"/>
  <rect x="80" y="120" width="1440" height="760" rx="40" fill="rgba(0,0,0,0.18)" stroke="rgba(255,255,255,0.12)" stroke-width="4"/>
  <rect x="120" y="160" width="700" height="360" rx="28" fill="rgba(255,255,255,0.07)" stroke="rgba(255,255,255,0.14)" stroke-width="3"/>
  <rect x="860" y="200" width="520" height="320" rx="28" fill="rgba(255,255,255,0.07)" stroke="rgba(255,255,255,0.14)" stroke-width="3"/>
  <rect x="180" y="560" width="520" height="240" rx="26" fill="rgba(255,255,255,0.07)" stroke="rgba(255,255,255,0.14)" stroke-width="3"/>
  <rect x="760" y="560" width="620" height="240" rx="26" fill="rgba(255,255,255,0.07)" stroke="rgba(255,255,255,0.14)" stroke-width="3"/>
  <path d="M200 210 h180 l-40 90 h100 l-120 200 h-80 l60-120 h-80z" fill="url(#shine)"/>
  <path d="M940 250 h120 l-44 80 h80 l-120 160 h-88 l58-104 h-88z" fill="url(#shine)"/>
  <path d="M340 650 h160 l-48 88 h92 l-132 120 h-92 l60-96 h-76z" fill="url(#shine)"/>
  <path d="M920 640 h200 l-60 100 h110 l-160 140 h-120 l80-120 h-110z" fill="url(#shine)"/>
  <circle cx="250" cy="220" r="32" fill="#EF4444" opacity="0.9"/>
  <circle cx="1310" cy="240" r="28" fill="#10B981" opacity="0.9"/>
  <circle cx="460" cy="580" r="24" fill="#22D3EE" opacity="0.9"/>
  <text x="160" y="930" fill="#ffffff" font-family="'Inter', system-ui" font-size="72" font-weight="700" letter-spacing="2">Project Code Red · Community in action</text>
</svg>
