<svg width="1600" height="900" viewBox="0 0 1600 900" xmlns="http://www.w3.org/2000/svg" role="img" aria-label="Project Code Red community spotlight">
  <defs>
    <linearGradient id="g1" x1="0" y1="0" x2="1" y2="1">
      <stop offset="0" stop-color="#0f172a" />
      <stop offset="1" stop-color="#1e3a8a" />
    </linearGradient>
    <linearGradient id="g2" x1="0" y1="1" x2="1" y2="0">
      <stop offset="0" stop-color="#ef4444" stop-opacity="0.8" />
      <stop offset="1" stop-color="#22d3ee" stop-opacity="0.85" />
    </linearGradient>
  </defs>
  <rect width="1600" height="900" fill="url(#g1)" rx="48" />
  <circle cx="220" cy="220" r="150" fill="url(#g2)" opacity="0.8" />
  <rect x="420" y="120" width="760" height="420" rx="32" fill="#0b1224" stroke="#38bdf8" stroke-width="10" opacity="0.9" />
  <rect x="1180" y="80" width="280" height="320" rx="36" fill="#0b1224" stroke="#fb7185" stroke-width="10" opacity="0.8" />
  <rect x="100" y="620" width="520" height="180" rx="28" fill="#0b1224" stroke="#4ade80" stroke-width="8" opacity="0.85" />
  <rect x="680" y="620" width="820" height="180" rx="28" fill="#0b1224" stroke="#c084fc" stroke-width="8" opacity="0.8" />
  <text x="160" y="690" fill="#e0f2fe" font-size="62" font-family="'Segoe UI', 'Inter', sans-serif" font-weight="700">Project Code Red</text>
  <text x="160" y="750" fill="#c7d2fe" font-size="40" font-family="'Segoe UI', 'Inter', sans-serif" font-weight="500">Community relief fueled by gamers</text>
  <text x="480" y="320" fill="#f8fafc" font-size="70" font-family="'Segoe UI', 'Inter', sans-serif" font-weight="700">Faces &amp; Fields</text>
  <text x="480" y="390" fill="#cbd5e1" font-size="38" font-family="'Segoe UI', 'Inter', sans-serif" font-weight="500">Streams, supply drops, and classroom support</text>
  <path d="M1400 500 C1300 650 1180 720 1020 760" stroke="#22d3ee" stroke-width="16" stroke-linecap="round" opacity="0.6"/>
  <path d="M1400 520 C1280 660 1120 740 880 780" stroke="#fb7185" stroke-width="12" stroke-linecap="round" opacity="0.5"/>
  <path d="M1200 360 C1100 480 980 520 820 540" stroke="#a3e635" stroke-width="12" stroke-linecap="round" opacity="0.4"/>
</svg>
