<svg xmlns="http://www.w3.org/2000/svg" viewBox="0 0 220 120" role="img" aria-label="Project Code Red logo">
  <defs>
    <linearGradient id="crGradient" x1="0%" y1="0%" x2="100%" y2="0%">
      <stop offset="0%" stop-color="#7c3aed" />
      <stop offset="45%" stop-color="#ec4899" />
      <stop offset="100%" stop-color="#ef4444" />
    </linearGradient>
  </defs>
  <path fill="url(#crGradient)" d="M18 30c0-13.25 10.75-24 24-24h70c26.4 0 48 21.6 48 48v12c0 26.4-21.6 48-48 48H46a24 24 0 0 1-24-24V30Zm30 6v48h62c12.15 0 22-9.85 22-22s-9.85-22-22-22H48Z"/>
  <path fill="url(#crGradient)" d="M122 6h56c18.8 0 34 15.2 34 34v18c0 16.4-9.4 30.55-24.1 36.8l20.9 33.2h-35.5l-18.2-30H140v30h-36V6h18Z"/>
</svg>
